<svg width="25" height="19" viewBox="0 0 25 19" fill="none" xmlns="http://www.w3.org/2000/svg">
<path d="M23.4375 18.75C23.4375 18.75 25 18.75 25 17.1875C25 15.625 23.4375 10.9375 17.1875 10.9375C10.9375 10.9375 9.375 15.625 9.375 17.1875C9.375 18.75 10.9375 18.75 10.9375 18.75H23.4375ZM10.9719 17.1875C10.9603 17.1859 10.9489 17.1838 10.9375 17.1812C10.9391 16.7688 11.1984 15.5719 12.125 14.4937C12.9875 13.4828 14.5031 12.5 17.1875 12.5C19.8703 12.5 21.3859 13.4844 22.25 14.4937C23.1766 15.5719 23.4344 16.7703 23.4375 17.1812L23.425 17.1844C23.4177 17.1856 23.4104 17.1866 23.4031 17.1875H10.9719ZM17.1875 7.8125C18.0163 7.8125 18.8112 7.48326 19.3972 6.89721C19.9833 6.31116 20.3125 5.5163 20.3125 4.6875C20.3125 3.8587 19.9833 3.06384 19.3972 2.47779C18.8112 1.89174 18.0163 1.5625 17.1875 1.5625C16.3587 1.5625 15.5638 1.89174 14.9778 2.47779C14.3917 3.06384 14.0625 3.8587 14.0625 4.6875C14.0625 5.5163 14.3917 6.31116 14.9778 6.89721C15.5638 7.48326 16.3587 7.8125 17.1875 7.8125ZM21.875 4.6875C21.875 5.30307 21.7538 5.91261 21.5182 6.48133C21.2826 7.05004 20.9373 7.56679 20.5021 8.00206C20.0668 8.43734 19.55 8.78262 18.9813 9.01819C18.4126 9.25375 17.8031 9.375 17.1875 9.375C16.5719 9.375 15.9624 9.25375 15.3937 9.01819C14.825 8.78262 14.3082 8.43734 13.8729 8.00206C13.4377 7.56679 13.0924 7.05004 12.8568 6.48133C12.6212 5.91261 12.5 5.30307 12.5 4.6875C12.5 3.4443 12.9939 2.25201 13.8729 1.37294C14.752 0.49386 15.9443 0 17.1875 0C18.4307 0 19.623 0.49386 20.5021 1.37294C21.3811 2.25201 21.875 3.4443 21.875 4.6875ZM10.8375 11.375C10.2125 11.1782 9.56818 11.0488 8.91562 10.9891C8.54896 10.9542 8.18082 10.937 7.8125 10.9375C1.5625 10.9375 0 15.625 0 17.1875C0 18.2297 0.520312 18.75 1.5625 18.75H8.15C7.91837 18.2622 7.80285 17.7274 7.8125 17.1875C7.8125 15.6094 8.40156 13.9969 9.51562 12.65C9.89531 12.1906 10.3375 11.7609 10.8375 11.375ZM7.6875 12.5C6.76274 13.8895 6.26319 15.5185 6.25 17.1875H1.5625C1.5625 16.7812 1.81875 15.5781 2.75 14.4937C3.60156 13.5 5.08125 12.5313 7.6875 12.5016V12.5ZM2.34375 5.46875C2.34375 4.22555 2.83761 3.03326 3.71669 2.15419C4.59576 1.27511 5.78805 0.78125 7.03125 0.78125C8.27445 0.78125 9.46674 1.27511 10.3458 2.15419C11.2249 3.03326 11.7188 4.22555 11.7188 5.46875C11.7188 6.71195 11.2249 7.90424 10.3458 8.78331C9.46674 9.66239 8.27445 10.1562 7.03125 10.1562C5.78805 10.1562 4.59576 9.66239 3.71669 8.78331C2.83761 7.90424 2.34375 6.71195 2.34375 5.46875ZM7.03125 2.34375C6.20245 2.34375 5.40759 2.67299 4.82154 3.25904C4.23549 3.84509 3.90625 4.63995 3.90625 5.46875C3.90625 6.29755 4.23549 7.09241 4.82154 7.67846C5.40759 8.26451 6.20245 8.59375 7.03125 8.59375C7.86005 8.59375 8.65491 8.26451 9.24096 7.67846C9.82701 7.09241 10.1562 6.29755 10.1562 5.46875C10.1562 4.63995 9.82701 3.84509 9.24096 3.25904C8.65491 2.67299 7.86005 2.34375 7.03125 2.34375Z" fill="#F6F6F6"/>
</svg>
