<svg width="270" height="82" viewBox="0 0 270 82" fill="none" xmlns="http://www.w3.org/2000/svg">
<g clip-path="url(#clip0_186_1290)">
<path d="M70.7922 77.1341V81.7008H69.3065V70.925H74.22C75.1979 70.925 75.9767 71.2073 76.5566 71.7717C77.1399 72.3362 77.4281 73.0639 77.4281 73.9513C77.4281 74.8116 77.188 75.5291 76.711 76.1004C76.138 76.7907 75.3077 77.1341 74.2165 77.1341H70.7922ZM70.7922 72.1491V75.9032H73.6984C74.4121 75.9032 74.9474 75.7638 75.3042 75.4849C75.7091 75.1687 75.9116 74.6552 75.9116 73.9513C75.9116 73.3121 75.7057 72.8428 75.2905 72.5436C74.9371 72.2784 74.4258 72.1458 73.7602 72.1458H70.7922V72.1491Z" fill="#F6F6F6"/>
<path d="M89.1524 77.0729V81.6974H87.6667V70.9216H92.6969C93.7262 70.9216 94.5463 71.1155 95.1536 71.4997C95.8982 71.9825 96.2722 72.751 96.2722 73.8017C96.2722 74.5192 96.1109 75.1007 95.7918 75.5393C95.5791 75.842 95.2325 76.1242 94.7556 76.3826C95.1948 76.5731 95.4933 76.7601 95.6511 76.9403C95.9256 77.2565 96.0663 77.753 96.0663 78.4297L96.1555 80.3781C96.1555 80.6875 96.1898 80.9085 96.255 81.0445C96.3202 81.1806 96.4712 81.32 96.7011 81.456V81.6974H94.91C94.8208 81.4288 94.7521 80.9935 94.7075 80.3917C94.6595 79.7898 94.6355 79.324 94.6355 78.9907C94.6355 78.2528 94.4536 77.736 94.0865 77.4435C93.7743 77.1953 93.311 77.0695 92.6969 77.0695H89.1524V77.0729ZM89.1524 72.1492V75.8148H92.539C93.2115 75.8148 93.7159 75.706 94.0556 75.4849C94.5188 75.1857 94.7521 74.6756 94.7521 73.9514C94.7521 73.2339 94.5188 72.7272 94.0556 72.4348C93.7537 72.2444 93.3419 72.1492 92.8135 72.1492H89.1524Z" fill="#F6F6F6"/>
<path d="M108.353 70.925V81.7008H106.895V70.925H108.353Z" fill="#F6F6F6"/>
<path d="M125.894 70.925H127.314V81.7008H125.681L120.14 72.9924L120.109 81.7008H118.681V70.925H120.441L125.863 79.6266L125.894 70.925Z" fill="#F6F6F6"/>
<path d="M136.915 72.2138V70.925H145.764V72.2138H142.065V81.7008H140.613V72.2138H136.915Z" fill="#F6F6F6"/>
<path d="M161.852 79.3614L163.791 81.7008H162.062L161.032 80.4699C160.617 80.9493 160.199 81.2996 159.773 81.5172C159.241 81.7994 158.61 81.9422 157.879 81.9422C156.699 81.9422 155.827 81.5716 155.261 80.8269C154.867 80.3101 154.671 79.7286 154.671 79.0893C154.671 78.3276 154.836 77.7088 155.162 77.2395C155.491 76.7669 156.143 76.2534 157.124 75.6958C156.699 75.1721 156.411 74.7709 156.26 74.492C156.068 74.1316 155.971 73.7405 155.971 73.3189C155.971 72.649 156.188 72.0948 156.623 71.6561C157.107 71.1665 157.749 70.9216 158.548 70.9216C159.358 70.9216 159.982 71.1563 160.429 71.6255C160.813 72.0267 161.005 72.5334 161.005 73.1421C161.005 73.8119 160.782 74.4002 160.339 74.9103C160.089 75.2027 159.653 75.5563 159.039 75.9644L161.036 78.3038C161.159 77.9774 161.245 77.7122 161.293 77.5116C161.341 77.3109 161.4 77.0151 161.465 76.6241H162.738C162.738 76.9845 162.662 77.3993 162.508 77.8618C162.35 78.331 162.134 78.8275 161.852 79.3614ZM160.336 79.5654L157.879 76.5968C157.183 77.0355 156.726 77.3823 156.503 77.6306C156.167 78.0012 155.999 78.4569 155.999 78.9941C155.999 79.596 156.253 80.0618 156.761 80.3951C157.141 80.6433 157.543 80.7691 157.965 80.7691C158.96 80.7691 159.749 80.3679 160.336 79.5654ZM158.339 75.0939C158.764 74.8151 159.06 74.577 159.228 74.3764C159.543 74.0228 159.701 73.6419 159.701 73.2339C159.701 72.8054 159.564 72.4892 159.293 72.2886C159.09 72.1356 158.84 72.0608 158.545 72.0608C158.061 72.0608 157.708 72.2138 157.488 72.5164C157.344 72.717 157.272 72.955 157.272 73.2339C157.272 73.5331 157.399 73.8766 157.649 74.2676C157.835 74.5498 158.061 74.8253 158.339 75.0939Z" fill="#F6F6F6"/>
<path d="M173.57 81.7008V70.925H177.965C179.372 70.925 180.484 71.4011 181.304 72.3566C182.124 73.3121 182.536 74.5736 182.536 76.1412C182.536 77.6136 182.213 78.8377 181.568 79.8204C180.748 81.0717 179.53 81.6974 177.907 81.6974H173.57V81.7008ZM175.028 72.1491V80.4393H177.876C178.844 80.4393 179.609 80.0754 180.178 79.3511C180.745 78.6269 181.029 77.5898 181.029 76.2398C181.029 74.9069 180.745 73.8901 180.172 73.1931C179.599 72.496 178.803 72.1491 177.783 72.1491H175.028Z" fill="#F6F6F6"/>
<path d="M200.834 80.4087V81.6974H192.809V70.9216H200.745V72.2104H194.294V75.5087H200.234V76.7975H194.294V80.4053H200.834V80.4087Z" fill="#F6F6F6"/>
<path d="M218.923 74.0772H217.561C217.561 73.3053 217.263 72.7272 216.666 72.3464C216.182 72.0369 215.581 71.8839 214.868 71.8839C214.195 71.8839 213.663 71.9893 213.269 72.2002C212.679 72.5096 212.38 73.0332 212.38 73.7745C212.38 74.186 212.51 74.5056 212.771 74.7334C212.963 74.9035 213.258 75.0327 213.653 75.1211L216.775 75.8386C217.53 76.0188 218.11 76.3248 218.515 76.7533C218.989 77.2565 219.225 77.9128 219.225 78.7187C219.225 79.8816 218.752 80.7487 217.805 81.32C217.057 81.7688 216.117 81.9932 214.988 81.9932C214.089 81.9932 213.348 81.8742 212.761 81.6328C212.408 81.49 212.047 81.2621 211.68 80.9425C211.265 80.5617 210.98 80.1502 210.826 79.7048C210.671 79.2593 210.592 78.7629 210.592 78.2086H211.955C211.955 79.0995 212.277 79.7626 212.922 80.2012C213.44 80.5549 214.12 80.7283 214.957 80.7283C215.924 80.7283 216.662 80.5413 217.17 80.1706C217.595 79.8612 217.805 79.4362 217.805 78.8955C217.805 78.3446 217.65 77.9468 217.342 77.702C217.033 77.4571 216.422 77.2259 215.502 77.0049L213.255 76.4914C212.665 76.3452 212.195 76.1344 211.848 75.8624C211.251 75.4033 210.953 74.764 210.953 73.9411C210.953 73.0128 211.241 72.2478 211.817 71.6459C212.483 70.9556 213.437 70.6122 214.679 70.6122C216.346 70.6122 217.527 71.0372 218.223 71.8873C218.69 72.4654 218.923 73.1931 218.923 74.0772Z" fill="#F6F6F6"/>
<path d="M231.018 70.925V81.7008H229.56V70.925H231.018Z" fill="#F6F6F6"/>
<path d="M246.102 77.1681V75.9372H250.857V81.7008H249.924L249.554 80.2863C249.193 80.7997 248.689 81.2146 248.04 81.5274C247.392 81.8402 246.706 82 245.982 82C245.134 82 244.41 81.864 243.813 81.5954C243.398 81.405 243.01 81.1295 242.643 80.7657C241.919 80.0856 241.425 79.2763 241.164 78.331C241.003 77.7496 240.921 77.0389 240.921 76.199C240.921 74.7368 241.336 73.4821 242.163 72.4314C243.11 71.2243 244.41 70.619 246.067 70.619C247.193 70.619 248.178 70.908 249.025 71.4827C249.982 72.1322 250.531 73.0333 250.676 74.1894H249.248C249.046 73.3393 248.596 72.7238 247.903 72.343C247.382 72.0539 246.75 71.9111 246.009 71.9111C244.98 71.9111 244.136 72.2852 243.48 73.0333C242.784 73.8357 242.437 74.9205 242.437 76.2942C242.437 77.583 242.677 78.5997 243.161 79.3376C243.769 80.2727 244.736 80.7385 246.067 80.7385C246.452 80.7385 246.791 80.7045 247.086 80.6365C247.529 80.5243 247.927 80.3271 248.277 80.0516C248.73 79.698 249.053 79.2729 249.245 78.7765C249.406 78.348 249.488 77.8108 249.488 77.1715H246.102V77.1681Z" fill="#F6F6F6"/>
<path d="M268.58 70.925H270V81.7008H268.367L262.825 72.9924L262.795 81.7008H261.367V70.925H263.127L268.549 79.6266L268.58 70.925Z" fill="#F6F6F6"/>
<path d="M83.5184 37.0913V60.9211H77.4075V37.0913H68.5585V32.0213H92.2886V37.0947H83.5184V37.0913Z" fill="#F6F6F6"/>
<path d="M97.1505 60.9245V32.0213H111.932C115.319 32.0213 117.813 33.0516 119.412 35.1089C120.548 36.5914 121.117 38.2678 121.117 40.1414C121.117 41.7804 120.716 43.2256 119.916 44.4769C119.117 45.7282 118.002 46.5919 116.574 47.0612C117.95 47.663 118.87 48.3397 119.333 49.0878C119.982 50.1351 120.304 51.9067 120.304 54.3958C120.304 56.3884 120.342 57.7758 120.414 58.5544C120.486 59.3331 120.887 59.8568 121.615 60.1186V60.9245H114.869C114.656 60.1764 114.495 59.3875 114.382 58.5544C114.269 57.7214 114.214 56.5516 114.214 55.0453C114.214 52.869 113.984 51.4613 113.521 50.8186C112.927 49.9787 111.558 49.5605 109.414 49.5605H103.165V60.9245H97.1505ZM103.162 44.7421H110.326C111.939 44.7421 113.126 44.4293 113.888 43.807C114.65 43.1848 115.03 42.1782 115.03 40.7875C115.03 39.7912 114.759 38.9717 114.217 38.329C113.49 37.4381 112.327 36.9927 110.724 36.9927H103.165V44.7421H103.162Z" fill="#F6F6F6"/>
<path d="M133.24 54.9671L131.215 60.9245H124.785L135.182 32.0213H142.264L152.502 60.9245H145.915L144.048 54.9671H133.24ZM141.155 23.2314L145.798 29.1106H141.234L138.634 25.8089L136.033 29.1106H131.49L136.112 23.2314H141.155ZM134.866 49.9719H142.346L138.675 38.5297L134.866 49.9719ZM143.976 24.2141L137.964 18.3348H144.213L148.042 24.2141H143.976Z" fill="#F6F6F6"/>
<path d="M174.431 32.0213H180.127V60.9245H174.037L162.172 40.2978L162.093 60.9245H156.397V32.0213H162.827L174.356 52.1549L174.431 32.0213Z" fill="#F6F6F6"/>
<path d="M212.963 50.2066V45.293H225.144V60.9245H221.078L220.443 57.3065C219.239 58.6429 218.206 59.595 217.348 60.156C215.695 61.2034 213.691 61.7304 211.337 61.7304C207.594 61.7304 204.492 60.4655 202.032 57.9356C199.293 55.1439 197.924 51.3355 197.924 46.5103C197.924 42.2361 199.074 38.7031 201.376 35.9114C203.98 32.7796 207.6 31.2121 212.229 31.2121C216.288 31.2121 219.524 32.341 221.932 34.5954C223.971 36.4962 224.99 38.6147 224.99 40.9473H218.899C218.899 40.121 218.385 39.1961 217.352 38.176C216.055 36.8669 214.456 36.2106 212.552 36.2106C210.17 36.2106 208.232 37.0097 206.739 38.6079C205.034 40.4679 204.179 43.1304 204.179 46.592C204.179 50.21 205.065 52.852 206.839 54.5148C208.266 55.892 210.198 56.5789 212.634 56.5789C214.432 56.5789 215.959 56.0076 217.218 54.8685C218.474 53.7293 219.308 52.1754 219.719 50.21H212.963V50.2066Z" fill="#F6F6F6"/>
<path d="M237.723 32.0213V60.9245H231.632V32.0213H237.723Z" fill="#F6F6F6"/>
<path d="M249.509 54.9671L247.485 60.9245H241.054L251.451 32.0213H258.533L268.772 60.9245H262.184L260.317 54.9671H249.509ZM251.135 49.9719H258.615L254.944 38.5296L251.135 49.9719Z" fill="#F6F6F6"/>
<path d="M65.0073 30.1409C62.3859 31.6371 59.8948 33.0755 57.3832 34.4764C56.8925 34.7518 56.6764 35.0477 56.7004 35.6257C56.7484 36.7989 56.7176 37.972 56.7141 39.1485C56.7141 39.441 56.7587 39.73 56.4122 39.9238C54.0687 41.2364 51.7355 42.5659 49.2376 43.977C49.2376 42.2531 49.2273 40.6651 49.241 39.0737C49.2547 37.4143 49.265 37.4211 47.6215 37.4245C45.8853 37.4279 44.1491 37.4313 42.4164 37.4041C41.9154 37.3973 41.7542 37.5571 41.7542 38.0638C41.7679 48.3023 41.7644 58.5408 41.7679 68.7794C41.7679 68.861 41.7919 68.9392 41.8022 69.014C41.9154 69.099 42.0115 69.0548 42.1076 69.0004C44.3173 67.7219 46.5269 66.4433 48.74 65.1716C49.0386 65.0016 49.2582 64.8349 49.2547 64.4269C49.2376 61.9446 49.2444 59.4624 49.2444 56.8203C47.9886 57.5207 46.8289 58.1702 45.5319 58.8945C45.5319 58.3096 45.5319 57.837 45.5319 57.3609C45.5319 55.2595 45.5387 53.1547 45.525 51.0532C45.5216 50.6656 45.6005 50.4038 45.9779 50.1895C49.4366 48.2207 52.8849 46.2315 56.3367 44.2491C56.4259 44.1981 56.5254 44.1743 56.6695 44.1165C56.6867 44.3273 56.7073 44.4837 56.7073 44.6401C56.7073 51.5463 56.7793 58.4558 56.6729 65.362C56.6318 67.9973 55.1152 70.0511 52.8918 71.3637C46.9593 74.866 40.941 78.229 34.9673 81.6634C34.4114 81.983 34.2536 81.9558 34.257 81.2689C34.2776 65.5422 34.2776 49.8155 34.2913 34.0922C34.2948 31.5487 35.7015 30.0797 38.2441 30.0729C47.0588 30.0491 55.8769 30.0627 64.6916 30.0661C64.7465 30.0593 64.7946 30.0831 65.0073 30.1409Z" fill="#F6F6F6"/>
<path d="M52.1712 6.81436C50.1125 12.1257 48.1087 17.3011 46.0637 22.5819C47.5048 22.5819 48.8464 22.5819 50.1846 22.5819C52.1403 22.5819 54.0961 22.6023 56.0519 22.5683C56.6078 22.5581 56.7519 22.7349 56.7278 23.2586C56.6867 24.0747 56.7004 24.8975 56.7244 25.7136C56.7347 26.1047 56.6043 26.2679 56.2063 26.2169C56.0691 26.1999 55.9318 26.2135 55.7946 26.2135C40.1758 26.2135 24.5536 26.2067 8.93486 26.2339C8.15255 26.2339 7.95011 26.0061 8.01531 25.2852C8.07364 24.6357 8.07364 23.9726 8.01531 23.3232C7.96041 22.7009 8.18 22.5479 8.79075 22.5547C11.8479 22.5887 14.9051 22.5751 17.9657 22.5785C18.1579 22.5785 18.35 22.5785 18.6966 22.5785C16.6516 17.3147 14.6375 12.1325 12.5788 6.83817C15.2963 7.43663 17.8903 8.0759 20.2715 9.36464C21.167 9.8509 22.0077 10.412 22.7866 11.0682C23.6478 11.7925 23.9394 12.68 23.6752 13.7749C23.3733 15.0195 22.7454 16.1076 21.9837 17.1073C21.5685 17.6548 21.6474 17.9506 22.1827 18.3314C22.989 18.9061 23.7713 19.4978 24.7286 19.814C26.0462 20.2458 27.2231 20.018 28.2456 19.0863C29.22 18.1988 29.7999 17.0529 30.3352 15.8832C30.4964 15.5261 30.342 15.4309 30.0161 15.3289C27.3638 14.4924 26.4099 12.2958 27.0206 9.52106C27.2745 8.36493 27.7721 7.30402 28.3176 6.2635C29.4087 4.17907 30.7435 2.24426 32.0713 0.302648C32.2257 0.0782237 32.3321 -0.224409 32.6306 0.214239C34.4046 2.80872 36.2334 5.3692 37.3725 8.32753C37.7294 9.25243 37.9318 10.2045 37.9009 11.2008C37.8357 13.1901 36.8819 14.5706 34.981 15.2133C34.3085 15.4411 34.2845 15.6927 34.5727 16.2368C35.0736 17.1821 35.5574 18.1274 36.3294 18.8925C37.5304 20.0826 38.92 20.341 40.4812 19.6542C41.3458 19.2733 42.0904 18.7259 42.8075 18.1206C43.1301 17.8486 43.1369 17.6684 42.8899 17.3249C42.1384 16.281 41.4591 15.1963 41.1194 13.9347C40.8003 12.748 41.1194 11.8061 42.063 11.0172C44.3721 9.08921 47.0896 8.0453 49.9787 7.35162C50.6581 7.19521 51.3409 7.02179 52.1712 6.81436Z" fill="#F6F6F6"/>
<path d="M0.054899 30.0627C0.439192 30.0627 0.820053 30.0627 1.20435 30.0627C10.7396 30.0559 20.2714 30.0491 29.8067 30.0287C30.2974 30.0287 30.4827 30.1443 30.4724 30.6646C30.4415 32.6844 30.438 34.7076 30.4621 36.7275C30.4689 37.2681 30.2871 37.4245 29.7552 37.4177C27.7995 37.3905 25.8403 37.4381 23.8879 37.3905C23.1536 37.3735 22.9649 37.6013 22.9684 38.3154C22.9924 46.864 22.9855 55.4091 22.9855 63.9576C22.9855 68.4903 22.9855 73.023 22.9855 77.5489C22.6595 77.6271 22.4777 77.4265 22.2753 77.3143C20.2406 76.1684 18.223 74.9953 16.1746 73.8765C15.6393 73.5841 15.4815 73.2509 15.4815 72.6592C15.5021 61.2441 15.4918 49.8291 15.5261 38.414C15.5295 37.5673 15.2997 37.2953 14.4762 37.4041C13.1723 37.5775 12.0332 37.1865 10.8974 36.5132C7.49714 34.4968 4.03851 32.5756 0.603889 30.617C0.398017 30.498 0.20244 30.3688 0 30.2497C0.0171559 30.1885 0.037743 30.1239 0.054899 30.0627Z" fill="#F6F6F6"/>
<path d="M30.3385 81.9558C29.213 81.3063 28.1048 80.6637 26.9931 80.0312C26.6019 79.8102 26.7598 79.4497 26.7598 79.1505C26.7495 71.6697 26.7529 64.1889 26.7529 56.7046C26.7529 51.7911 26.7632 46.8742 26.7392 41.9606C26.7357 41.3451 26.8901 41.1479 27.5146 41.1921C28.3106 41.2465 29.1135 41.2261 29.9096 41.1989C30.3556 41.1819 30.4723 41.3519 30.462 41.7702C30.438 42.9705 30.4551 44.1743 30.4551 45.3746C30.4551 57.2249 30.4551 69.0752 30.4517 80.9255C30.4517 81.2451 30.5238 81.5716 30.3385 81.9558Z" fill="#F6F6F6"/>
<path d="M8.029 39.1621C9.25393 39.8592 10.3382 40.4951 11.4396 41.0935C11.8685 41.3281 11.7415 41.6988 11.7415 42.0286C11.7484 50.2405 11.745 58.4558 11.745 66.6677C11.745 68.1673 11.745 69.6635 11.745 71.3602C9.63822 69.6805 8.05988 67.8511 8.04272 65.1852C7.99812 57.7894 8.02557 50.3969 8.02557 43.0011C8.029 41.7804 8.029 40.5529 8.029 39.1621Z" fill="#F6F6F6"/>
</g>
<defs>
<clipPath id="clip0_186_1290">
<rect width="270" height="82" fill="white"/>
</clipPath>
</defs>
</svg>
