<svg width="25" height="25" viewBox="0 0 25 25" fill="none" xmlns="http://www.w3.org/2000/svg">
<path d="M20.8334 18.7498H18.75V9.63525L12.5 13.5415L6.25004 9.63525V18.7498H4.16671V6.24984H5.41671L12.5 10.6769L19.5834 6.24984H20.8334V18.7498ZM20.8334 4.1665H4.16671C3.01046 4.1665 2.08337 5.09359 2.08337 6.24984V18.7498C2.08337 19.3024 2.30287 19.8323 2.69357 20.223C3.08427 20.6137 3.61417 20.8332 4.16671 20.8332H20.8334C21.3859 20.8332 21.9158 20.6137 22.3065 20.223C22.6972 19.8323 22.9167 19.3024 22.9167 18.7498V6.24984C22.9167 5.6973 22.6972 5.1674 22.3065 4.7767C21.9158 4.386 21.3859 4.1665 20.8334 4.1665Z" fill="#1952C4"/>
</svg>
