<svg width="270" height="82" viewBox="0 0 270 82" fill="none" xmlns="http://www.w3.org/2000/svg">
<path d="M70.7922 77.1344V81.7011H69.3065V70.9253H74.22C75.1979 70.9253 75.9767 71.2075 76.5566 71.772C77.1399 72.3364 77.4281 73.0641 77.4281 73.9516C77.4281 74.8119 77.188 75.5294 76.711 76.1007C76.138 76.7909 75.3077 77.1344 74.2165 77.1344H70.7922ZM70.7922 72.1494V75.9034H73.6984C74.4121 75.9034 74.9474 75.764 75.3042 75.4852C75.7091 75.169 75.9116 74.6555 75.9116 73.9516C75.9116 73.3124 75.7057 72.8431 75.2905 72.5439C74.9371 72.2786 74.4258 72.146 73.7602 72.146H70.7922V72.1494Z" fill="#009FE3"/>
<path d="M89.1524 77.0731V81.6977H87.6667V70.9219H92.6969C93.7262 70.9219 94.5463 71.1157 95.1536 71.4999C95.8982 71.9828 96.2722 72.7513 96.2722 73.802C96.2722 74.5195 96.1109 75.1009 95.7918 75.5396C95.5791 75.8422 95.2325 76.1244 94.7556 76.3829C95.1948 76.5733 95.4933 76.7603 95.6511 76.9405C95.9256 77.2568 96.0663 77.7532 96.0663 78.4299L96.1555 80.3783C96.1555 80.6877 96.1898 80.9088 96.255 81.0448C96.3202 81.1808 96.4712 81.3202 96.7011 81.4562V81.6977H94.91C94.8208 81.429 94.7521 80.9938 94.7075 80.3919C94.6595 79.79 94.6355 79.3242 94.6355 78.991C94.6355 78.2531 94.4536 77.7362 94.0865 77.4438C93.7743 77.1956 93.311 77.0697 92.6969 77.0697H89.1524V77.0731ZM89.1524 72.1494V75.815H92.539C93.2115 75.815 93.7159 75.7062 94.0556 75.4852C94.5188 75.1859 94.7521 74.6759 94.7521 73.9516C94.7521 73.2341 94.5188 72.7275 94.0556 72.435C93.7537 72.2446 93.3419 72.1494 92.8135 72.1494H89.1524Z" fill="#009FE3"/>
<path d="M108.353 70.9253V81.7011H106.895V70.9253H108.353Z" fill="#009FE3"/>
<path d="M125.894 70.9253H127.314V81.7011H125.681L120.14 72.9927L120.109 81.7011H118.681V70.9253H120.441L125.863 79.6268L125.894 70.9253Z" fill="#009FE3"/>
<path d="M136.915 72.214V70.9253H145.764V72.214H142.065V81.7011H140.613V72.214H136.915Z" fill="#009FE3"/>
<path d="M161.852 79.3616L163.791 81.7011H162.062L161.032 80.4701C160.617 80.9496 160.199 81.2998 159.773 81.5174C159.241 81.7997 158.61 81.9425 157.879 81.9425C156.699 81.9425 155.827 81.5718 155.261 80.8272C154.867 80.3103 154.671 79.7288 154.671 79.0896C154.671 78.3279 154.836 77.709 155.162 77.2398C155.491 76.7671 156.143 76.2537 157.124 75.696C156.699 75.1723 156.411 74.7711 156.26 74.4923C156.068 74.1318 155.971 73.7408 155.971 73.3191C155.971 72.6493 156.188 72.095 156.623 71.6564C157.107 71.1667 157.749 70.9219 158.548 70.9219C159.358 70.9219 159.982 71.1565 160.429 71.6257C160.813 72.027 161.005 72.5337 161.005 73.1423C161.005 73.8122 160.782 74.4005 160.339 74.9105C160.089 75.2029 159.653 75.5566 159.039 75.9646L161.036 78.3041C161.159 77.9776 161.245 77.7124 161.293 77.5118C161.341 77.3112 161.4 77.0153 161.465 76.6243H162.738C162.738 76.9847 162.662 77.3996 162.508 77.862C162.35 78.3313 162.134 78.8277 161.852 79.3616ZM160.336 79.5656L157.879 76.5971C157.183 77.0357 156.726 77.3826 156.503 77.6308C156.167 78.0015 155.999 78.4571 155.999 78.9944C155.999 79.5962 156.253 80.0621 156.761 80.3953C157.141 80.6435 157.543 80.7694 157.965 80.7694C158.96 80.7694 159.749 80.3681 160.336 79.5656ZM158.339 75.0941C158.764 74.8153 159.06 74.5773 159.228 74.3767C159.543 74.023 159.701 73.6422 159.701 73.2341C159.701 72.8057 159.564 72.4894 159.293 72.2888C159.09 72.1358 158.84 72.061 158.545 72.061C158.061 72.061 157.708 72.214 157.488 72.5166C157.344 72.7173 157.272 72.9553 157.272 73.2341C157.272 73.5334 157.399 73.8768 157.649 74.2678C157.835 74.5501 158.061 74.8255 158.339 75.0941Z" fill="#009FE3"/>
<path d="M173.57 81.7011V70.9253H177.965C179.372 70.9253 180.484 71.4013 181.304 72.3568C182.124 73.3124 182.536 74.5739 182.536 76.1415C182.536 77.6138 182.213 78.838 181.568 79.8207C180.748 81.072 179.53 81.6977 177.907 81.6977H173.57V81.7011ZM175.028 72.1494V80.4395H177.876C178.844 80.4395 179.609 80.0757 180.178 79.3514C180.745 78.6271 181.029 77.59 181.029 76.2401C181.029 74.9071 180.745 73.8904 180.172 73.1933C179.599 72.4963 178.803 72.1494 177.783 72.1494H175.028Z" fill="#009FE3"/>
<path d="M200.834 80.4089V81.6977H192.809V70.9219H200.745V72.2106H194.294V75.509H200.234V76.7977H194.294V80.4055H200.834V80.4089Z" fill="#009FE3"/>
<path d="M218.923 74.0773H217.561C217.561 73.3054 217.263 72.7273 216.666 72.3465C216.182 72.0371 215.581 71.884 214.868 71.884C214.195 71.884 213.663 71.9895 213.269 72.2003C212.679 72.5097 212.38 73.0334 212.38 73.7747C212.38 74.1861 212.51 74.5057 212.771 74.7336C212.963 74.9036 213.258 75.0328 213.653 75.1212L216.775 75.8387C217.53 76.0189 218.11 76.3249 218.515 76.7534C218.989 77.2566 219.225 77.9129 219.225 78.7188C219.225 79.8817 218.752 80.7488 217.805 81.3201C217.057 81.7689 216.117 81.9934 214.988 81.9934C214.089 81.9934 213.348 81.8743 212.761 81.6329C212.408 81.4901 212.047 81.2623 211.68 80.9426C211.265 80.5618 210.98 80.1503 210.826 79.7049C210.671 79.2595 210.592 78.763 210.592 78.2087H211.955C211.955 79.0996 212.277 79.7627 212.922 80.2014C213.44 80.555 214.12 80.7284 214.957 80.7284C215.924 80.7284 216.662 80.5414 217.17 80.1708C217.595 79.8613 217.805 79.4363 217.805 78.8956C217.805 78.3448 217.65 77.9469 217.342 77.7021C217.033 77.4573 216.422 77.226 215.502 77.005L213.255 76.4915C212.665 76.3453 212.195 76.1345 211.848 75.8625C211.251 75.4034 210.953 74.7642 210.953 73.9413C210.953 73.013 211.241 72.2479 211.817 71.646C212.483 70.9557 213.437 70.6123 214.679 70.6123C216.346 70.6123 217.527 71.0374 218.223 71.8874C218.69 72.4655 218.923 73.1932 218.923 74.0773Z" fill="#009FE3"/>
<path d="M231.018 70.9253V81.7011H229.56V70.9253H231.018Z" fill="#009FE3"/>
<path d="M246.102 77.1683V75.9373H250.857V81.701H249.924L249.554 80.2864C249.193 80.7999 248.689 81.2147 248.04 81.5275C247.392 81.8404 246.706 82.0002 245.982 82.0002C245.134 82.0002 244.41 81.8642 243.813 81.5955C243.398 81.4051 243.01 81.1297 242.643 80.7659C241.919 80.0858 241.425 79.2765 241.164 78.3312C241.003 77.7497 240.921 77.039 240.921 76.1992C240.921 74.737 241.336 73.4823 242.163 72.4315C243.11 71.2244 244.41 70.6191 246.067 70.6191C247.193 70.6191 248.178 70.9082 249.025 71.4828C249.982 72.1323 250.531 73.0334 250.676 74.1895H249.248C249.046 73.3394 248.596 72.724 247.903 72.3431C247.382 72.0541 246.75 71.9113 246.009 71.9113C244.98 71.9113 244.136 72.2853 243.48 73.0334C242.784 73.8359 242.437 74.9206 242.437 76.2944C242.437 77.5831 242.677 78.5998 243.161 79.3377C243.769 80.2728 244.736 80.7387 246.067 80.7387C246.452 80.7387 246.791 80.7046 247.086 80.6366C247.529 80.5244 247.927 80.3272 248.277 80.0518C248.73 79.6981 249.053 79.2731 249.245 78.7766C249.406 78.3482 249.488 77.8109 249.488 77.1717H246.102V77.1683Z" fill="#009FE3"/>
<path d="M268.58 70.9253H270V81.7011H268.367L262.825 72.9927L262.795 81.7011H261.367V70.9253H263.127L268.549 79.6268L268.58 70.9253Z" fill="#009FE3"/>
<path d="M83.5184 37.0914V60.9213H77.4075V37.0914H68.5585V32.0215H92.2886V37.0948H83.5184V37.0914Z" fill="#009FE3"/>
<path d="M97.1505 60.9247V32.0215H111.932C115.319 32.0215 117.813 33.0518 119.412 35.109C120.548 36.5916 121.117 38.268 121.117 40.1416C121.117 41.7806 120.716 43.2257 119.916 44.4771C119.117 45.7284 118.002 46.5921 116.574 47.0613C117.95 47.6632 118.87 48.3399 119.333 49.088C119.982 50.1353 120.304 51.9069 120.304 54.3959C120.304 56.3886 120.342 57.7759 120.414 58.5546C120.486 59.3333 120.887 59.8569 121.615 60.1188V60.9247H114.869C114.656 60.1766 114.495 59.3877 114.382 58.5546C114.269 57.7215 114.214 56.5518 114.214 55.0454C114.214 52.8692 113.984 51.4614 113.521 50.8187C112.927 49.9789 111.558 49.5606 109.414 49.5606H103.165V60.9247H97.1505V60.9247ZM103.162 44.7423H110.326C111.939 44.7423 113.126 44.4294 113.888 43.8072C114.65 43.1849 115.03 42.1784 115.03 40.7876C115.03 39.7913 114.759 38.9718 114.217 38.3292C113.49 37.4383 112.327 36.9928 110.724 36.9928H103.165V44.7423H103.162Z" fill="#009FE3"/>
<path d="M133.24 54.9672L131.215 60.9246H124.785L135.182 32.0215H142.264L152.502 60.9246H145.915L144.048 54.9672H133.24ZM141.155 23.2315L145.798 29.1107H141.234L138.634 25.809L136.033 29.1107H131.49L136.112 23.2315H141.155ZM134.866 49.972H142.346L138.675 38.5298L134.866 49.972ZM143.976 24.2142L137.964 18.335H144.213L148.042 24.2142H143.976Z" fill="#009FE3"/>
<path d="M174.431 32.0215H180.127V60.9247H174.037L162.172 40.298L162.093 60.9247H156.397V32.0215H162.827L174.356 52.1551L174.431 32.0215Z" fill="#009FE3"/>
<path d="M212.963 50.2069V45.2933H225.144V60.9249H221.078L220.443 57.3069C219.239 58.6432 218.206 59.5953 217.348 60.1564C215.695 61.2037 213.691 61.7308 211.337 61.7308C207.594 61.7308 204.492 60.4658 202.032 57.9359C199.293 55.1442 197.924 51.3358 197.924 46.5107C197.924 42.2364 199.074 38.7034 201.376 35.9117C203.98 32.78 207.6 31.2124 212.229 31.2124C216.288 31.2124 219.524 32.3413 221.932 34.5958C223.971 36.4966 224.99 38.615 224.99 40.9477H218.899C218.899 40.1214 218.385 39.1965 217.352 38.1764C216.055 36.8672 214.456 36.211 212.552 36.211C210.17 36.211 208.232 37.01 206.739 38.6082C205.034 40.4682 204.179 43.1307 204.179 46.5923C204.179 50.2103 205.065 52.8524 206.839 54.5152C208.266 55.8923 210.198 56.5792 212.634 56.5792C214.432 56.5792 215.959 56.0079 217.218 54.8688C218.474 53.7297 219.308 52.1757 219.719 50.2103H212.963V50.2069Z" fill="#F08221"/>
<path d="M237.723 32.0215V60.9247H231.632V32.0215H237.723V32.0215Z" fill="#F08221"/>
<path d="M249.509 54.9672L247.485 60.9247H241.054L251.451 32.0215H258.533L268.772 60.9247H262.184L260.317 54.9672H249.509ZM251.135 49.9721H258.615L254.944 38.5298L251.135 49.9721Z" fill="#F08221"/>
<path d="M65.0073 30.1408C62.3859 31.637 59.8948 33.0754 57.3832 34.4763C56.8925 34.7517 56.6764 35.0476 56.7004 35.6256C56.7484 36.7988 56.7176 37.9719 56.7141 39.1484C56.7141 39.4409 56.7587 39.7299 56.4122 39.9237C54.0687 41.2363 51.7355 42.5658 49.2376 43.977C49.2376 42.253 49.2273 40.665 49.241 39.0736C49.2547 37.4142 49.265 37.421 47.6215 37.4244C45.8853 37.4278 44.1491 37.4312 42.4164 37.404C41.9154 37.3972 41.7542 37.5571 41.7542 38.0637C41.7679 48.3022 41.7644 58.5408 41.7679 68.7793C41.7679 68.8609 41.7919 68.9391 41.8022 69.0139C41.9154 69.0989 42.0115 69.0547 42.1076 69.0003C44.3172 67.7218 46.5269 66.4432 48.74 65.1715C49.0386 65.0015 49.2582 64.8348 49.2547 64.4268C49.2376 61.9445 49.2444 59.4623 49.2444 56.8202C47.9886 57.5206 46.8289 58.1701 45.5319 58.8944C45.5319 58.3095 45.5319 57.8369 45.5319 57.3608C45.5319 55.2594 45.5387 53.1546 45.525 51.0531C45.5216 50.6655 45.6005 50.4037 45.9779 50.1894C49.4366 48.2206 52.8849 46.2314 56.3367 44.249C56.4259 44.198 56.5254 44.1742 56.6695 44.1164C56.6867 44.3272 56.7073 44.4836 56.7073 44.64C56.7073 51.5462 56.7793 58.4557 56.6729 65.3619C56.6318 67.9972 55.1152 70.051 52.8918 71.3636C46.9593 74.8659 40.941 78.2289 34.9673 81.6633C34.4114 81.9829 34.2536 81.9557 34.257 81.2688C34.2776 65.5421 34.2776 49.8154 34.2913 34.0921C34.2948 31.5486 35.7015 30.0796 38.2441 30.0728C47.0588 30.049 55.8769 30.0626 64.6916 30.066C64.7465 30.0592 64.7946 30.083 65.0073 30.1408Z" fill="#009FE3"/>
<path d="M52.1712 6.81433C50.1125 12.1257 48.1087 17.3011 46.0637 22.5819C47.5048 22.5819 48.8464 22.5819 50.1846 22.5819C52.1403 22.5819 54.0961 22.6023 56.0519 22.5683C56.6078 22.5581 56.7519 22.7349 56.7278 23.2585C56.6867 24.0746 56.7004 24.8975 56.7244 25.7136C56.7347 26.1046 56.6043 26.2679 56.2063 26.2169C56.0691 26.1999 55.9318 26.2135 55.7946 26.2135C40.1758 26.2135 24.5536 26.2067 8.93486 26.2339C8.15255 26.2339 7.95011 26.006 8.01531 25.2852C8.07364 24.6357 8.07364 23.9726 8.01531 23.3231C7.96041 22.7009 8.18 22.5479 8.79075 22.5547C11.8479 22.5887 14.9051 22.5751 17.9657 22.5785C18.1579 22.5785 18.35 22.5785 18.6966 22.5785C16.6516 17.3147 14.6375 12.1325 12.5788 6.83814C15.2963 7.4366 17.8903 8.07587 20.2715 9.36461C21.167 9.85087 22.0077 10.4119 22.7866 11.0682C23.6478 11.7925 23.9394 12.68 23.6752 13.7749C23.3733 15.0194 22.7454 16.1076 21.9837 17.1073C21.5685 17.6547 21.6474 17.9506 22.1827 18.3314C22.989 18.9061 23.7713 19.4977 24.7286 19.814C26.0462 20.2458 27.2231 20.018 28.2456 19.0863C29.22 18.1988 29.7999 17.0529 30.3352 15.8831C30.4964 15.5261 30.342 15.4309 30.0161 15.3289C27.3638 14.4924 26.4099 12.2957 27.0206 9.52103C27.2745 8.3649 27.7721 7.30399 28.3176 6.26347C29.4087 4.17904 30.7435 2.24423 32.0713 0.302618C32.2257 0.0781932 32.3321 -0.22444 32.6306 0.214208C34.4046 2.80869 36.2334 5.36917 37.3725 8.3275C37.7294 9.2524 37.9318 10.2045 37.9009 11.2008C37.8357 13.19 36.8819 14.5706 34.981 15.2133C34.3085 15.4411 34.2845 15.6927 34.5727 16.2368C35.0736 17.1821 35.5574 18.1274 36.3294 18.8925C37.5304 20.0826 38.92 20.341 40.4812 19.6541C41.3458 19.2733 42.0904 18.7258 42.8075 18.1206C43.1301 17.8485 43.1369 17.6683 42.8899 17.3249C42.1384 16.281 41.4591 15.1963 41.1194 13.9347C40.8003 12.748 41.1194 11.8061 42.063 11.0172C44.3721 9.08918 47.0896 8.04527 49.9787 7.35159C50.6581 7.19517 51.3409 7.02176 52.1712 6.81433Z" fill="#F08221"/>
<path d="M0.054899 30.0628C0.439192 30.0628 0.820053 30.0628 1.20435 30.0628C10.7396 30.056 20.2714 30.0492 29.8067 30.0288C30.2974 30.0288 30.4827 30.1444 30.4724 30.6647C30.4415 32.6845 30.438 34.7077 30.4621 36.7275C30.4689 37.2682 30.2871 37.4246 29.7552 37.4178C27.7995 37.3906 25.8403 37.4382 23.8879 37.3906C23.1536 37.3736 22.9649 37.6014 22.9684 38.3155C22.9924 46.8641 22.9855 55.4092 22.9855 63.9577C22.9855 68.4904 22.9855 73.0231 22.9855 77.549C22.6595 77.6272 22.4777 77.4266 22.2753 77.3144C20.2406 76.1685 18.223 74.9953 16.1746 73.8766C15.6393 73.5842 15.4815 73.251 15.4815 72.6593C15.5021 61.2442 15.4918 49.8292 15.5261 38.4141C15.5295 37.5674 15.2997 37.2954 14.4762 37.4042C13.1723 37.5776 12.0332 37.1866 10.8974 36.5133C7.49714 34.4969 4.03851 32.5757 0.603889 30.6171C0.398018 30.4981 0.20244 30.3688 0 30.2498C0.0171559 30.1886 0.037743 30.124 0.054899 30.0628Z" fill="#009FE3"/>
<path d="M30.3385 81.9557C29.213 81.3062 28.1048 80.6635 26.9931 80.031C26.6019 79.81 26.7598 79.4496 26.7598 79.1503C26.7495 71.6695 26.7529 64.1887 26.7529 56.7045C26.7529 51.7909 26.7632 46.874 26.7392 41.9605C26.7357 41.345 26.8901 41.1478 27.5146 41.192C28.3106 41.2464 29.1135 41.226 29.9096 41.1988C30.3556 41.1818 30.4723 41.3518 30.462 41.77C30.438 42.9704 30.4551 44.1741 30.4551 45.3744C30.4551 57.2247 30.4551 69.075 30.4517 80.9253C30.4517 81.245 30.5238 81.5714 30.3385 81.9557Z" fill="#F08221"/>
<path d="M8.029 39.1621C9.25393 39.8592 10.3382 40.4951 11.4396 41.0935C11.8685 41.3281 11.7415 41.6988 11.7415 42.0286C11.7484 50.2405 11.745 58.4558 11.745 66.6677C11.745 68.1673 11.745 69.6635 11.745 71.3602C9.63822 69.6805 8.05988 67.8511 8.04272 65.1852C7.99812 57.7894 8.02557 50.3969 8.02557 43.0011C8.029 41.7804 8.029 40.5529 8.029 39.1621Z" fill="#F08221"/>
</svg>
