<svg width="25" height="25" viewBox="0 0 25 25" fill="none" xmlns="http://www.w3.org/2000/svg">
<path d="M12.5 0C19.4036 0 25 5.59644 25 12.5C25 19.4036 19.4036 25 12.5 25C5.59644 25 0 19.4036 0 12.5C0 5.59644 5.59644 0 12.5 0ZM12.5 4.23431C9.05865 4.23431 6.26831 7.02467 6.26831 10.466C6.26831 11.5084 6.55396 12.8846 7.14115 13.6627L12.5 20.7657L17.8589 13.6627C18.5053 12.806 18.7317 11.6169 18.7317 10.466C18.7317 7.02467 15.9414 4.23431 12.5 4.23431ZM12.5 7.84454C13.948 7.84454 15.1215 9.01802 15.1215 10.466C15.1215 11.914 13.948 13.0875 12.5 13.0875C11.052 13.0875 9.87854 11.914 9.87854 10.466C9.87854 9.01802 11.052 7.84454 12.5 7.84454Z" fill="#1952C4"/>
</svg>
